<svg width="256" height="256" viewBox="0 0 256 256" fill="none" xmlns="http://www.w3.org/2000/svg">
  <defs>
    <linearGradient id="mainGrad" x1="0%" y1="0%" x2="100%" y2="100%">
      <stop offset="0%" stop-color="#6366F1" />
      <stop offset="100%" stop-color="#A855F7" />
    </linearGradient>
    <linearGradient id="bgGrad" x1="0%" y1="0%" x2="100%" y2="100%">
      <stop offset="0%" stop-color="#1E293B" />
      <stop offset="100%" stop-color="#0F172A" />
    </linearGradient>
    <filter id="glow" x="-20%" y="-20%" width="140%" height="140%">
      <feGaussianBlur stdDeviation="6" result="blur" />
      <feComposite in="SourceGraphic" in2="blur" operator="over" />
    </filter>
  </defs>
  <path d="M128 10L230 60V196L128 246L26 196V60L128 10Z" fill="url(#bgGrad)" stroke="url(#mainGrad)" stroke-width="2" />
  <g transform="translate(128, 128) scale(0.8)">
    <path d="M0 -60L60 -30V30L0 60L-60 30V-30L0 -60Z" fill="#334155" transform="translate(0, 40)" opacity="0.3" />
    <path d="M0 -60L60 -30V30L0 60L-60 30V-30L0 -60Z" fill="#475569" transform="translate(0, 0)" opacity="0.5" />
    <path d="M0 -60L60 -30V30L0 60L-60 30V-30L0 -60Z" fill="url(#mainGrad)" transform="translate(0, -40)" filter="url(#glow)" />
    <text x="0" y="10" font-family="Arial, sans-serif" font-weight="900" font-size="32" text-anchor="middle" fill="white" transform="translate(0, -40)">AI</text>
    <circle cx="40" cy="-10" r="4" fill="white" />
    <circle cx="-40" cy="-10" r="4" fill="white" />
    <circle cx="0" cy="30" r="4" fill="white" />
    <path d="M0 -15 L35 -10 M0 -15 L-35 -10 M0 -15 L0 25" stroke="white" stroke-width="2" stroke-dasharray="2 4" transform="translate(0, -40)" opacity="0.6" />
  </g>
  <circle cx="60" cy="60" r="2" fill="white" opacity="0.6" />
  <circle cx="200" cy="180" r="3" fill="white" opacity="0.4" />
  <circle cx="180" cy="40" r="1.5" fill="white" opacity="0.8" />
</svg>